<svg id="Capa_1" enable-background="new 0 0 475.293 475.293" height="512" viewBox="0 0 475.293 475.293" width="512" xmlns="http://www.w3.org/2000/svg"><path d="m237.647 0c-131.037 0-237.647 106.61-237.647 237.647s106.61 237.647 237.647 237.647 237.647-106.61 237.647-237.647-106.611-237.647-237.647-237.647zm0 445.587c-114.66 0-207.941-93.28-207.941-207.941s93.28-207.941 207.941-207.941 207.941 93.28 207.941 207.941-93.281 207.941-207.941 207.941z"/><path d="m252.514 89.117c-40.962 0-74.279 33.317-74.279 74.279v74.25h-29.706v29.706h27.954c-3.483 23.516-12.113 46-25.46 66.026-3.032 4.555-3.322 10.414-.74 15.245 2.582 4.83 7.615 7.847 13.098 7.847h163.382v-29.706l-137.81-.029c9.031-18.702 14.828-38.744 17.398-59.383h61v-29.706h-59.412v-74.25c0-24.571 20.002-44.573 44.573-44.573 11.923 0 23.135 4.656 31.562 13.098 8.413 8.427 13.04 19.64 13.011 31.562l-.029 14.722 29.706.058.029-14.722c.044-19.857-7.659-38.539-21.685-52.609-14.038-14.069-32.72-21.814-52.592-21.815z"/></svg>