<?xml version="1.0"?>
<svg xmlns="http://www.w3.org/2000/svg" viewBox="0 0 512 512" width="512" height="512"><g id="_22-cocktail" data-name="22-cocktail"><g id="linear_color" data-name="linear color"><path d="M442.208,73.691A12,12,0,0,0,432,68H387.72c-.114-.566-.252-1.125-.382-1.686C409.951,54.094,428,32.484,428,16A12,12,0,0,0,416,4h0a12,12,0,0,0-12,12c0,4.7-10.363,19.214-26.733,28.482a61.031,61.031,0,0,0-6.683-7.646A60.007,60.007,0,0,0,270.118,68H80A12,12,0,0,0,69.267,85.366a833.916,833.916,0,0,0,58.941,97.571c42.489,59.983,81.368,93.5,115.792,99.9V428.8c-13,19.726-69.756,44.453-103.8,55.812A12,12,0,0,0,144,508H368a12,12,0,0,0,3.8-23.384C337.756,473.257,281,448.53,268,428.8V282.842c34.424-6.41,73.3-39.922,115.792-99.9a833.916,833.916,0,0,0,58.941-97.571A12,12,0,0,0,442.208,73.691ZM398.384,116H376.9A59.553,59.553,0,0,0,387.71,92h24.341C408.415,98.628,403.8,106.827,398.384,116ZM303.013,55a35.757,35.757,0,0,1,25.265-10.987C347.85,43.246,365.31,60.407,364.91,80A36,36,0,1,1,303.013,55ZM270.1,92a59.178,59.178,0,0,0,10.8,24H113.616c-5.414-9.173-10.031-17.372-13.667-24Zm36.72,392H205.181C228.5,472.8,245.322,462.064,256,451.528,266.678,462.064,283.5,472.8,306.819,484ZM256,260c-28.2,0-66.577-32.217-108.052-90.716-7-9.879-13.591-19.789-19.631-29.284H383.683c-6.04,9.5-12.627,19.405-19.631,29.284C322.577,227.783,284.2,260,256,260Z"/><circle cx="292" cy="172" r="12"/><circle cx="220" cy="188" r="12"/><circle cx="260" cy="220" r="12"/></g></g></svg>
