<?xml version="1.0" encoding="iso-8859-1"?>
<!-- Generator: Adobe Illustrator 19.0.0, SVG Export Plug-In . SVG Version: 6.00 Build 0)  -->
<svg version="1.1" id="Capa_1" xmlns="http://www.w3.org/2000/svg" xmlns:xlink="http://www.w3.org/1999/xlink" x="0px" y="0px"
	 viewBox="0 0 512 512" style="enable-background:new 0 0 512 512;" xml:space="preserve">
<g>
	<g>
		<polygon points="289.262,222.738 289.262,134.423 222.738,134.423 222.738,222.738 134.423,222.738 134.423,289.262 
			222.738,289.262 222.738,377.577 289.262,377.577 289.262,289.262 377.577,289.262 377.577,222.738 		"/>
	</g>
</g>
<g>
	<g>
		<path d="M437.02,74.98C388.667,26.629,324.38,0,256,0S123.333,26.629,74.98,74.98C26.629,123.333,0,187.62,0,256
			s26.629,132.667,74.98,181.02C123.333,485.371,187.62,512,256,512s132.667-26.629,181.02-74.98
			C485.371,388.667,512,324.38,512,256S485.371,123.333,437.02,74.98z M407.576,319.261h-88.315v88.315H192.738v-88.315h-88.315
			V192.738h88.315v-88.315h126.523v88.315h88.315V319.261z"/>
	</g>
</g>
<g>
</g>
<g>
</g>
<g>
</g>
<g>
</g>
<g>
</g>
<g>
</g>
<g>
</g>
<g>
</g>
<g>
</g>
<g>
</g>
<g>
</g>
<g>
</g>
<g>
</g>
<g>
</g>
<g>
</g>
</svg>
