<svg height="512" viewBox="0 0 512 512" width="512" xmlns="http://www.w3.org/2000/svg"><g id="solid"><path d="m235.809 72a12.207 12.207 0 0 0 -10.626 6.214l-51.283 91.179a86.026 86.026 0 0 0 -10.584 51.975l3.124 28.107a40.416 40.416 0 0 1 -9.077 30.19l-25.9 31.083 51.221 46.1 27.069-33.848a7.87 7.87 0 0 1 .59-.66l9.81-9.81a89.421 89.421 0 0 0 25.115-48.8 201.344 201.344 0 0 0 2.732-33.009v-26.721a12 12 0 0 0 -24 0v20a8 8 0 0 1 -1.344 4.438l-16 24a8 8 0 1 1 -13.312-8.876l14.656-21.984v-17.578a28.036 28.036 0 0 1 25.3-27.867l14.5-79.773a12.165 12.165 0 0 0 .2-2.18v-9.989a12.2 12.2 0 0 0 -12.191-12.191z"/><path d="m32 403.112v36.888h100.087l49.027-63.034-68.573-61.717z"/><path d="m354.641 279.665a40.416 40.416 0 0 1 -9.077-30.19l3.124-28.107a86.026 86.026 0 0 0 -10.588-51.975l-51.283-91.179a12.191 12.191 0 0 0 -22.817 5.977v9.989a12.218 12.218 0 0 0 .2 2.178l14.5 79.775a28.036 28.036 0 0 1 25.3 27.867v17.578l14.656 21.984a8 8 0 0 1 -13.312 8.876l-16-24a8 8 0 0 1 -1.344-4.438v-20a12 12 0 0 0 -24 0v26.721a201.344 201.344 0 0 0 2.732 33.008 89.421 89.421 0 0 0 25.115 48.8l9.81 9.81a7.87 7.87 0 0 1 .59.66l27.075 33.844 51.221-46.1z"/><path d="m399.459 315.249-68.573 61.717 49.027 63.034h100.087v-36.888z"/></g></svg>