<?xml version="1.0" encoding="iso-8859-1"?>
<!-- Generator: Adobe Illustrator 16.0.0, SVG Export Plug-In . SVG Version: 6.00 Build 0)  -->
<!DOCTYPE svg PUBLIC "-//W3C//DTD SVG 1.1//EN" "http://www.w3.org/Graphics/SVG/1.1/DTD/svg11.dtd">
<svg version="1.1" id="Capa_1" xmlns="http://www.w3.org/2000/svg" xmlns:xlink="http://www.w3.org/1999/xlink" x="0px" y="0px"
	 width="47.154px" height="47.154px" viewBox="0 0 47.154 47.154" style="enable-background:new 0 0 47.154 47.154;"
	 xml:space="preserve">
<g>
	<g>
		<path d="M17.207,26.989c0.391,1.199,1.509,2.01,2.769,2.01h20.487c1.309,0,2.457-0.873,2.807-2.135l3.778-13.629
			c0.243-0.877,0.063-1.817-0.488-2.542c-0.551-0.724-1.407-1.149-2.317-1.149H13.974l-2.735-3.809
			c-1.438-2-3.749-3.187-6.213-3.187H2.158C0.968,2.548,0,3.506,0,4.698C0,5.89,0.968,6.847,2.158,6.847h2.404
			c1.362,0,2.641,0.66,3.43,1.771l3.854,5.428v16.957c0,2.756,2.234,4.99,4.989,4.99h23.083c1.191,0,2.156-0.958,2.156-2.149
			c0-1.19-0.965-2.149-2.156-2.149H17.407c-0.656,0-1.188-0.531-1.188-1.188V23.96L17.207,26.989z"/>
		<circle cx="16.463" cy="41.359" r="3.247"/>
		<circle cx="37.484" cy="41.359" r="3.247"/>
	</g>
</g>
<g>
</g>
<g>
</g>
<g>
</g>
<g>
</g>
<g>
</g>
<g>
</g>
<g>
</g>
<g>
</g>
<g>
</g>
<g>
</g>
<g>
</g>
<g>
</g>
<g>
</g>
<g>
</g>
<g>
</g>
</svg>
