<?xml version="1.0" encoding="UTF-8"?>
<svg xmlns="http://www.w3.org/2000/svg" xmlns:xlink="http://www.w3.org/1999/xlink" width="38.400002pt" height="38.400002pt" viewBox="0 0 38.400002 38.400002" version="1.1">
<g id="surface1">
<path style=" stroke:none;fill-rule:nonzero;fill:rgb(92%,92%,92%);fill-opacity:1;" d="M 33.601562 31.199219 L 4.800781 31.199219 L 4.800781 18.398438 L 19.199219 4.800781 L 33.601562 18.398438 Z M 33.601562 31.199219 "/>
<path style=" stroke:none;fill-rule:nonzero;fill:rgb(80%,80%,80%);fill-opacity:1;" d="M 31.199219 16.800781 L 27.199219 12.800781 L 27.199219 7.199219 L 31.199219 7.199219 Z M 31.199219 16.800781 "/>
<path style=" stroke:none;fill-rule:nonzero;fill:rgb(80%,80%,80%);fill-opacity:1;" d="M 4.800781 31.199219 L 33.601562 31.199219 L 33.601562 35.199219 L 4.800781 35.199219 Z M 4.800781 31.199219 "/>
<path style=" stroke:none;fill-rule:nonzero;fill:rgb(29%,29%,29%);fill-opacity:1;" d="M 19.199219 3.441406 L 3.199219 18.320312 L 4.800781 20.078125 L 19.199219 6.71875 L 33.601562 20.078125 L 35.199219 18.320312 Z M 19.199219 3.441406 "/>
<path style=" stroke:none;fill-rule:nonzero;fill:rgb(42%,42%,42%);fill-opacity:1;" d="M 14.398438 22.398438 L 24 22.398438 L 24 35.199219 L 14.398438 35.199219 Z M 14.398438 22.398438 "/>
<path style=" stroke:none;fill-rule:nonzero;fill:rgb(27%,27%,27%);fill-opacity:1;" d="M 16.800781 13.601562 L 21.601562 13.601562 L 21.601562 18.398438 L 16.800781 18.398438 Z M 16.800781 13.601562 "/>
<path style=" stroke:none;fill-rule:nonzero;fill:rgb(66%,66%,66%);fill-opacity:1;" d="M 22 28.398438 C 21.761719 28.398438 21.601562 28.558594 21.601562 28.800781 L 21.601562 30.398438 C 21.601562 30.640625 21.761719 30.800781 22 30.800781 C 22.238281 30.800781 22.398438 30.640625 22.398438 30.398438 L 22.398438 28.800781 C 22.398438 28.558594 22.238281 28.398438 22 28.398438 Z M 22 28.398438 "/>
</g>
</svg>
